<?xml version="1.0" standalone="no"?>
<!DOCTYPE svg PUBLIC "-//W3C//DTD SVG 20010904//EN"
 "http://www.w3.org/TR/2001/REC-SVG-20010904/DTD/svg10.dtd">
<svg version="1.0" xmlns="http://www.w3.org/2000/svg"
 width="39.000000pt" height="41.000000pt" viewBox="0 0 39.000000 41.000000"
 preserveAspectRatio="xMidYMid meet">

<g transform="translate(0.000000,41.000000) scale(0.100000,-0.100000)"
fill="#000000" stroke="none">
<path d="M160 330 c0 -5 11 -10 25 -10 14 0 25 5 25 10 0 6 -11 10 -25 10 -14
0 -25 -4 -25 -10z"/>
<path d="M91 279 c-26 -35 -31 -51 -31 -98 0 -48 5 -62 28 -91 26 -30 34 -34
78 -34 56 0 91 20 118 67 19 34 20 53 4 63 -7 4 -8 3 -4 -4 5 -8 2 -10 -8 -6
-9 3 -13 11 -9 18 3 6 1 6 -8 -1 -7 -7 -21 -13 -32 -13 -13 0 -17 -6 -15 -22
3 -20 -1 -23 -27 -20 -43 5 -52 18 -29 44 l19 23 -26 -22 c-45 -41 -85 -23
-54 24 12 17 14 28 6 32 -7 5 -4 18 10 40 30 49 15 49 -20 0z"/>
<path d="M226 308 c3 -5 10 -6 15 -3 13 9 11 12 -6 12 -8 0 -12 -4 -9 -9z"/>
</g>
</svg>
